<svg width="15" height="16" viewBox="0 0 15 16" fill="none" xmlns="http://www.w3.org/2000/svg">
<path d="M12.4825 12.175C12.8125 11.6575 13 11.035 13 10.375C13 8.5 11.5 7 9.625 7C7.75 7 6.25 8.5 6.25 10.375C6.25 12.25 7.75 13.75 9.625 13.75C10.2775 13.75 10.8925 13.5625 11.41 13.24L13.75 15.5425L14.7925 14.5L12.4825 12.175ZM9.625 12.25C9.12772 12.25 8.65081 12.0525 8.29918 11.7008C7.94754 11.3492 7.75 10.8723 7.75 10.375C7.75 9.87772 7.94754 9.40081 8.29918 9.04918C8.65081 8.69755 9.12772 8.5 9.625 8.5C10.1223 8.5 10.5992 8.69755 10.9508 9.04918C11.3025 9.40081 11.5 9.87772 11.5 10.375C11.5 10.8723 11.3025 11.3492 10.9508 11.7008C10.5992 12.0525 10.1223 12.25 9.625 12.25ZM13.75 4.75H12.25V3.25H13.75V4.75ZM13.75 1.75H12.25V0.25H13C13.4125 0.25 13.75 0.5875 13.75 1V1.75ZM12.25 6.2725V6.25H13.75V7.75H13.7275C13.3456 7.1581 12.8419 6.6544 12.25 6.2725ZM10.75 1.75H9.25V0.25H10.75V1.75ZM7.75 1.75H6.25V0.25H7.75V1.75ZM0.25 3.25H1.75V4.75H0.25V3.25ZM3.25 12.25H4.75V13.75H3.25V12.25ZM0.25 6.25H1.75V7.75H0.25V6.25ZM1 0.25H1.75V1.75H0.25V1C0.25 0.5875 0.5875 0.25 1 0.25ZM4.75 1.75H3.25V0.25H4.75V1.75ZM0.25 12.25H1.75V13.75H1C0.5875 13.75 0.25 13.4125 0.25 13V12.25ZM0.25 9.25H1.75V10.75H0.25V9.25Z" fill="blue"/>
</svg>
